<?xml version="1.0" standalone="no"?>
<!DOCTYPE svg PUBLIC "-//W3C//DTD SVG 20010904//EN"
 "http://www.w3.org/TR/2001/REC-SVG-20010904/DTD/svg10.dtd">
<svg version="1.0" xmlns="http://www.w3.org/2000/svg"
 width="800.000000pt" height="800.000000pt" viewBox="0 0 800.000000 800.000000"
 preserveAspectRatio="xMidYMid meet">
<metadata>
Created by potrace 1.11, written by Peter Selinger 2001-2013
</metadata>
<g transform="translate(0.000000,800.000000) scale(0.100000,-0.100000)"
fill="#000000" stroke="none">
<path d="M2500 7699 c-82 -15 -105 -20 -160 -38 -421 -139 -703 -526 -703
-966 0 -64 7 -141 17 -190 22 -105 41 -161 84 -255 31 -68 122 -196 185 -260
61 -63 125 -120 133 -120 2 0 35 -20 73 -45 38 -25 73 -45 76 -45 17 0 105
-46 106 -55 1 -5 2 -23 3 -40 0 -16 3 -32 6 -35 3 -3 12 -43 18 -90 7 -47 15
-96 17 -110 2 -14 13 -79 24 -145 11 -66 23 -138 26 -160 4 -22 13 -83 22
-135 8 -52 17 -108 19 -125 3 -16 10 -57 15 -90 6 -33 12 -71 14 -85 4 -27 5
-32 30 -185 9 -55 19 -113 21 -130 2 -16 6 -41 9 -55 3 -14 8 -45 11 -70 10
-83 14 -105 28 -183 8 -43 17 -97 20 -120 3 -24 7 -50 10 -58 3 -7 7 -36 10
-64 3 -27 9 -63 14 -80 4 -16 8 -45 8 -62 -1 -18 1 -33 4 -33 3 0 6 -9 7 -21
2 -18 24 -164 37 -239 18 -103 28 -180 22 -180 -10 0 -46 82 -40 92 4 6 2 8
-3 5 -10 -7 -28 20 -25 36 1 4 -2 7 -7 7 -10 0 -21 27 -20 44 0 5 -3 12 -8 15
-19 13 -43 62 -37 74 4 7 3 9 -1 4 -9 -7 -22 13 -92 144 -22 41 -50 92 -63
114 -42 74 -84 160 -82 168 1 4 -2 7 -7 7 -13 0 -83 139 -76 150 4 6 1 9 -7 8
-7 -2 -12 5 -12 14 1 10 -2 16 -5 13 -7 -4 -36 48 -39 68 -1 4 -12 18 -24 31
-13 13 -39 41 -58 61 -18 20 -47 44 -62 53 -15 9 -28 20 -28 24 0 4 -7 8 -15
8 -8 0 -23 4 -33 9 -44 24 -68 29 -157 36 -135 9 -264 -43 -361 -147 -64 -67
-109 -168 -116 -257 -1 -18 -6 -35 -11 -38 -4 -2 -4 -10 1 -16 6 -7 11 -39 13
-72 2 -33 7 -62 10 -65 14 -13 47 -94 42 -103 -3 -6 -1 -7 4 -4 6 4 20 -14 33
-41 12 -26 34 -69 50 -97 16 -27 27 -56 25 -62 -2 -7 1 -12 8 -10 7 1 11 -6
11 -15 -1 -10 2 -16 6 -13 11 7 22 -24 13 -37 -3 -6 -1 -8 4 -5 6 4 24 -18 41
-51 16 -31 44 -83 61 -115 18 -32 58 -104 89 -160 32 -56 68 -125 82 -152 14
-28 29 -53 34 -56 5 -4 5 -12 1 -19 -5 -8 -4 -11 2 -7 5 3 24 -22 41 -56 48
-94 101 -191 109 -202 5 -6 24 -39 43 -75 19 -36 47 -87 62 -115 15 -27 33
-61 40 -75 7 -14 23 -42 36 -63 12 -21 20 -43 16 -49 -4 -6 -3 -8 3 -5 13 8
26 -20 16 -35 -3 -6 -1 -8 4 -5 6 4 18 -8 27 -26 31 -62 73 -136 86 -152 7 -8
10 -15 6 -15 -3 0 5 -17 18 -37 14 -21 26 -45 28 -53 2 -8 6 -17 9 -20 11 -10
78 -130 72 -130 -3 0 1 -8 9 -17 26 -30 49 -83 42 -95 -4 -6 -3 -8 4 -4 6 4
21 -13 35 -41 55 -108 65 -124 120 -186 15 -18 39 -50 55 -72 15 -22 32 -44
38 -50 6 -5 18 -23 28 -39 23 -37 56 -74 136 -155 36 -36 64 -69 62 -74 -1 -5
2 -6 7 -3 12 8 33 -18 23 -29 -4 -5 -2 -5 4 -2 6 3 31 -12 55 -35 24 -23 45
-40 47 -39 8 6 71 -53 65 -62 -3 -6 -1 -7 5 -3 10 6 121 -60 165 -98 9 -9 18
-15 20 -14 1 1 56 -24 122 -56 126 -62 128 -62 215 -94 30 -11 64 -23 75 -28
11 -4 29 -9 40 -11 10 -2 22 -7 25 -11 3 -4 14 -7 25 -6 11 0 32 -3 45 -9 14
-5 41 -12 60 -14 19 -2 37 -7 40 -11 3 -4 14 -7 25 -8 24 -1 119 -13 155 -19
14 -2 45 -5 70 -7 25 -1 48 -7 52 -13 5 -7 8 -7 8 0 0 10 81 10 108 0 6 -2 12
0 12 5 0 5 12 5 29 0 16 -4 32 -5 36 -2 3 3 34 7 68 9 90 3 147 9 154 17 3 3
13 0 21 -7 13 -9 14 -9 8 1 -7 12 0 13 91 16 17 1 29 4 26 9 -2 4 4 7 14 8 21
1 28 2 106 23 32 9 63 13 69 10 7 -4 8 -2 4 4 -6 11 19 18 47 13 4 0 7 3 7 9
0 5 8 10 18 10 9 1 28 7 42 14 21 12 26 12 37 -3 10 -14 11 -13 6 7 -4 16 -1
22 11 22 10 0 42 11 72 25 31 14 60 22 66 19 6 -4 8 -3 5 3 -4 6 19 22 50 37
30 15 79 43 109 62 29 19 58 34 64 34 5 0 10 5 10 11 0 6 9 9 19 6 15 -3 18
-1 14 11 -5 11 -2 14 10 9 9 -3 16 -3 14 2 -4 14 62 63 74 55 8 -4 9 -3 5 4
-4 7 -4 12 1 12 4 0 26 17 49 38 97 88 126 112 134 107 5 -3 12 0 16 6 4 8 3
9 -4 5 -26 -16 -8 8 54 71 36 38 70 67 76 65 5 -1 6 2 3 8 -4 6 0 19 9 28 60
64 76 84 76 91 0 5 12 21 28 36 15 16 21 25 13 20 -7 -4 -3 6 10 24 14 19 29
29 37 26 12 -4 13 -3 2 10 -12 14 -7 19 13 16 5 -1 6 3 2 8 -3 6 17 50 45 99
27 48 50 93 50 100 0 7 5 12 10 12 6 0 9 3 9 8 -3 15 23 72 31 67 4 -3 7 1 6
8 -2 18 36 127 43 123 3 -2 7 10 8 27 1 17 6 33 10 36 5 3 8 12 9 19 4 46 3
45 22 31 15 -13 16 -12 4 3 -11 13 -8 35 13 126 14 61 25 120 25 132 0 12 3
19 8 17 4 -3 8 20 9 51 5 141 8 172 18 172 7 0 7 3 0 8 -6 4 -11 18 -12 32 -6
148 -15 299 -18 315 -3 11 -7 37 -10 59 -3 21 -8 42 -11 47 -3 5 1 9 8 9 10 0
10 2 -1 9 -8 6 -12 20 -9 39 2 17 1 29 -4 26 -4 -3 -8 5 -9 18 0 13 -2 32 -4
43 -3 11 -6 39 -7 62 -2 24 -5 43 -8 43 -6 0 -11 37 -14 95 0 17 -4 32 -8 35
-4 3 -9 33 -10 67 -2 33 -6 59 -9 57 -4 -2 -8 11 -8 29 -2 35 -5 59 -14 97 -4
14 -9 43 -12 65 -3 22 -7 52 -10 68 -20 113 -28 170 -29 209 -1 20 -4 34 -7
32 -3 -1 -12 41 -19 94 -7 53 -12 97 -11 97 1 0 -2 12 -8 28 -8 20 -7 27 2 27
9 0 9 2 -1 8 -7 5 -14 30 -15 55 -1 26 -5 47 -9 47 -3 0 -5 11 -3 25 1 14 -2
25 -6 25 -5 0 -11 11 -15 25 -3 14 -10 25 -15 25 -5 0 -9 7 -9 15 0 8 -8 23
-17 33 -10 10 -28 29 -40 43 -39 42 -57 55 -113 82 -185 89 -391 32 -510 -143
-22 -33 -38 -60 -34 -60 3 0 2 -6 -3 -12 -12 -15 -27 -85 -24 -108 1 -13 0
-13 -8 0 -5 9 -12 38 -14 65 -3 28 -8 57 -11 66 -4 8 -8 43 -9 76 -1 33 -6 58
-11 55 -5 -3 -7 5 -4 16 4 12 2 22 -3 22 -5 0 -8 3 -7 8 5 22 -44 137 -65 153
-4 3 -9 15 -10 27 0 11 -4 19 -8 17 -3 -3 -28 17 -56 43 -56 53 -71 63 -129
91 -177 85 -413 45 -548 -94 -61 -63 -114 -143 -122 -183 -4 -18 -9 -30 -13
-28 -6 4 -9 -20 -11 -81 0 -18 -5 -33 -11 -33 -5 0 -9 6 -8 13 1 6 -1 28 -4
47 -9 44 -16 86 -23 130 -2 19 -9 58 -14 85 -5 28 -11 64 -14 80 -2 17 -12 48
-22 70 -10 22 -17 43 -16 48 1 4 -2 7 -8 7 -5 0 -10 7 -10 15 0 7 -31 45 -68
83 -121 123 -290 179 -442 148 -83 -16 -159 -51 -213 -96 -40 -33 -107 -103
-107 -112 0 -3 -6 -13 -13 -20 -10 -11 -36 -59 -42 -78 -1 -3 -5 -18 -10 -35
-4 -16 -13 -33 -19 -37 -8 -5 -7 -8 1 -8 9 0 10 -7 4 -22 -4 -13 -7 -35 -6
-50 1 -15 -1 -25 -4 -23 -8 4 -15 60 -15 122 -1 22 -4 39 -8 36 -5 -2 -8 2 -9
9 0 7 -2 22 -4 33 -3 11 -6 41 -7 67 -2 27 -6 48 -9 48 -3 0 -5 20 -5 44 1 24
-2 42 -6 40 -5 -4 -10 22 -22 121 -2 17 -7 41 -10 55 -3 14 -8 43 -11 64 -3
21 -8 48 -10 60 -3 12 -7 37 -10 56 -8 65 -15 105 -20 130 -3 14 -7 41 -10 60
-2 19 -9 64 -15 100 -5 36 -12 76 -14 90 -3 20 12 40 71 99 83 83 146 167 192
256 29 58 69 154 76 185 55 233 51 408 -16 611 -56 169 -148 307 -290 434 -82
73 -129 104 -234 155 -132 64 -254 92 -410 95 -71 1 -150 -1 -175 -6z"/>
<path d="M3346 5838 c3 -5 10 -6 15 -3 13 9 11 12 -6 12 -8 0 -12 -4 -9 -9z"/>
<path d="M4476 4778 c3 -5 10 -6 15 -3 13 9 11 12 -6 12 -8 0 -12 -4 -9 -9z"/>
<path d="M2450 3761 c0 -6 4 -13 10 -16 6 -3 7 1 4 9 -7 18 -14 21 -14 7z"/>
<path d="M4360 446 c0 -2 8 -10 18 -17 15 -13 16 -12 3 4 -13 16 -21 21 -21
13z"/>
</g>
</svg>
